<?xml version="1.0" encoding="UTF-8" standalone="no"?>
<!-- Created with Inkscape (http://www.inkscape.org/) -->

<svg
   width="456"
   height="456"
   viewBox="0 0 456 456"
   version="1.1"
   id="svg1"
   sodipodi:docname="splash101.svg"
   inkscape:export-filename="splash106.svg"
   inkscape:export-xdpi="96"
   inkscape:export-ydpi="96"
   inkscape:version="1.3 (0e150ed6c4, 2023-07-21)"
   xmlns:inkscape="http://www.inkscape.org/namespaces/inkscape"
   xmlns:sodipodi="http://sodipodi.sourceforge.net/DTD/sodipodi-0.dtd"
   xmlns:xlink="http://www.w3.org/1999/xlink"
   xmlns="http://www.w3.org/2000/svg"
   xmlns:svg="http://www.w3.org/2000/svg">
  <sodipodi:namedview
     id="namedview1"
     pagecolor="#4bffff"
     bordercolor="#000000"
     borderopacity="0.25"
     inkscape:showpageshadow="2"
     inkscape:pageopacity="0.0"
     inkscape:pagecheckerboard="0"
     inkscape:deskcolor="#d1d1d1"
     inkscape:zoom="1.7828947"
     inkscape:cx="435.24723"
     inkscape:cy="272.87085"
     inkscape:window-width="2560"
     inkscape:window-height="1009"
     inkscape:window-x="-8"
     inkscape:window-y="-8"
     inkscape:window-maximized="1"
     inkscape:current-layer="layer1" />
  <defs
     id="defs1">
    <rect
       x="118.34686"
       y="360.64945"
       width="301.75646"
       height="52.723247"
       id="rect17" />
    <linearGradient
       id="linearGradient13"
       inkscape:swatch="gradient">
      <stop
         style="stop-color:#ffffff;stop-opacity:0;"
         offset="0"
         id="stop14" />
      <stop
         style="stop-color:#fffdce;stop-opacity:0;"
         offset="1"
         id="stop15" />
    </linearGradient>
    <linearGradient
       id="linearGradient7"
       inkscape:swatch="gradient">
      <stop
         style="stop-color:#ffffff;stop-opacity:1;"
         offset="0"
         id="stop7" />
      <stop
         style="stop-color:#000000;stop-opacity:0;"
         offset="1"
         id="stop8" />
    </linearGradient>
    <linearGradient
       inkscape:collect="always"
       xlink:href="#linearGradient13"
       id="linearGradient16"
       gradientUnits="userSpaceOnUse"
       x1="146.16341"
       y1="272.94037"
       x2="356.28418"
       y2="272.94037" />
    <linearGradient
       inkscape:collect="always"
       xlink:href="#linearGradient7"
       id="linearGradient17"
       gradientUnits="userSpaceOnUse"
       x1="145.95279"
       y1="272.94037"
       x2="356.07358"
       y2="272.94037" />
  </defs>
  <g
     id="layer1"
     transform="matrix(2.5191064,0,0,2.2373903,-366.68553,-267.06163)">
    <path
       d="m 214.66004,153.89898 v 9.83601 h 36.46055 v -9.83601 c 0,-1.08196 -0.82036,-1.96721 -1.82303,-1.96721 h -32.81449 c -1.00267,0 -1.82303,0.88525 -1.82303,1.96721 z m -10.93816,9.83601 v -9.83601 c 0,-7.59832 5.71974,-13.77042 12.76119,-13.77042 h 32.81449 c 7.04144,0 12.76119,6.1721 12.76119,13.77042 v 9.83601 h 6.40338 c 2.89406,0 5.67418,1.25409 7.72509,3.46719 l 11.82689,12.76222 c 2.0509,2.2131 3.21308,5.21309 3.21308,8.33602 v 18.713 h -29.16844 v -3.9344 c 0,-4.35243 -3.25866,-7.86881 -7.29211,-7.86881 -4.03344,0 -7.2921,3.51638 -7.2921,7.86881 v 3.9344 H 218.3061 v -3.9344 c 0,-4.35243 -3.25866,-7.86881 -7.29211,-7.86881 -4.03345,0 -7.29211,3.51638 -7.29211,7.86881 v 3.9344 h -29.16845 v -18.713 c 0,-3.12293 1.16219,-6.12292 3.21309,-8.33602 l 11.82689,-12.76222 c 2.05091,-2.2131 4.83103,-3.46719 7.72508,-3.46719 z m -29.16845,70.81925 v -19.67201 h 29.16845 v 3.93441 c 0,4.35242 3.25866,7.86879 7.29211,7.86879 4.03345,0 7.29211,-3.51637 7.29211,-7.86879 v -3.93441 h 29.16844 v 3.93441 c 0,4.35242 3.25866,7.86879 7.2921,7.86879 4.03345,0 7.29211,-3.51637 7.29211,-7.86879 v -3.93441 h 29.16844 v 19.67201 c 0,8.68028 -6.54011,15.73762 -14.58422,15.73762 h -87.50531 c -8.04412,0 -14.58423,-7.05734 -14.58423,-15.73762 z"
       id="path1-7"
       style="fill:#ffffff;stroke-width:0.236718" />
    <text
       xml:space="preserve"
       style="font-style:normal;font-variant:normal;font-weight:normal;font-stretch:normal;font-size:6.73947px;font-family:sans-serif;-inkscape-font-specification:'sans-serif, ';font-variant-ligatures:normal;font-variant-caps:normal;font-variant-numeric:normal;font-variant-east-asian:normal;white-space:pre;inline-size:148.775;display:inline;fill:#000080;stroke-width:0.272173"
       x="215.04227"
       y="283.01401"
       id="text1"
       transform="matrix(0.98081679,0,0,1.0195584,-48.538268,-16.54537)" />
    <text
       xml:space="preserve"
       style="font-style:normal;font-variant:normal;font-weight:bold;font-stretch:normal;font-size:13.4789px;font-family:Sans;-inkscape-font-specification:'Sans, Bold';font-variant-ligatures:normal;font-variant-caps:normal;font-variant-numeric:normal;font-variant-east-asian:normal;text-align:center;text-anchor:middle;fill:url(#linearGradient16);stroke:url(#linearGradient17);stroke-width:0.421217"
       x="251.08229"
       y="268.41888"
       id="text4"
       transform="scale(0.94242678,1.0610904)"><tspan
         sodipodi:role="line"
         id="tspan4"
         style="font-style:normal;font-variant:normal;font-weight:normal;font-stretch:normal;font-size:11.2325px;font-family:'Lucida Sans';-inkscape-font-specification:'Lucida Sans, Normal';font-variant-ligatures:normal;font-variant-caps:normal;font-variant-numeric:normal;font-variant-east-asian:normal;opacity:1;fill:#ffffff;fill-opacity:1;stroke:none;stroke-width:0.421217;stroke-opacity:1"
         x="251.08229"
         y="268.41888">Copyright 2023 </tspan><tspan
         sodipodi:role="line"
         style="font-style:normal;font-variant:normal;font-weight:normal;font-stretch:normal;font-size:11.2325px;font-family:'Lucida Sans';-inkscape-font-specification:'Lucida Sans, Normal';font-variant-ligatures:normal;font-variant-caps:normal;font-variant-numeric:normal;font-variant-east-asian:normal;fill:#ffffff;fill-opacity:1;stroke:none;stroke-width:0.421217;stroke-opacity:1"
         x="251.08229"
         y="285.26752"
         id="tspan5">CrawfordNET Solutions, LLC</tspan></text>
    <text
       xml:space="preserve"
       transform="matrix(0.39696616,0,0,0.44694929,145.56175,119.36301)"
       id="text17"
       style="font-style:normal;font-variant:normal;font-weight:600;font-stretch:normal;font-size:26.6667px;font-family:'Lucida Sans';-inkscape-font-specification:'Lucida Sans, Semi-Bold';font-variant-ligatures:normal;font-variant-caps:normal;font-variant-numeric:normal;font-variant-east-asian:normal;text-align:center;white-space:pre;shape-inside:url(#rect17);display:inline;opacity:1;fill:#ffffff;fill-opacity:1;stroke:#000000;stroke-opacity:1" />
  </g>
</svg>
