<?xml version="1.0" standalone="no"?>
<!DOCTYPE svg PUBLIC "-//W3C//DTD SVG 20010904//EN"
 "http://www.w3.org/TR/2001/REC-SVG-20010904/DTD/svg10.dtd">
<svg version="1.0" xmlns="http://www.w3.org/2000/svg"
 width="173.000000pt" height="180.000000pt" viewBox="0 0 173.000000 180.000000"
 preserveAspectRatio="xMidYMid meet">

<g transform="translate(0.000000,180.000000) scale(0.100000,-0.100000)"
fill="#000000" stroke="none">
<path d="M460 1781 c-5 -11 -10 -45 -10 -75 0 -55 0 -56 -29 -56 -50 0 -61 -9
-61 -51 l0 -39 -69 0 -70 0 -110 -97 -111 -96 0 -114 c0 -106 1 -113 20 -113
18 0 20 -7 20 -60 0 -46 4 -61 17 -68 28 -14 43 -3 43 30 0 17 3 28 7 25 10
-10 12 -97 2 -103 -5 -3 -9 4 -9 15 0 14 -5 19 -15 15 -9 -4 -15 -19 -15 -38
0 -21 3 -27 9 -17 7 11 10 9 15 -7 5 -14 13 -19 26 -17 12 2 20 -2 20 -10 0
-7 6 -15 13 -18 6 -2 9 -8 5 -12 -4 -4 -16 2 -26 15 l-19 23 0 -32 c0 -17 4
-27 7 -20 5 8 13 8 25 2 12 -7 14 -13 6 -17 -8 -5 -11 -111 -11 -369 0 -237 4
-357 10 -347 8 13 10 13 10 -1 0 -9 -7 -20 -16 -23 -22 -8 -26 -8 -19 4 3 6 1
10 -4 10 -13 0 -14 -20 -2 -39 7 -11 13 -12 23 -3 15 12 300 10 421 -3 47 -5
72 -4 80 4 14 14 102 14 129 0 15 -8 22 -8 28 1 7 12 77 10 233 -6 41 -4 64
-2 80 8 14 10 31 12 49 7 42 -11 436 2 441 15 2 6 2 0 0 -12 -2 -15 0 -21 7
-17 13 8 13 125 0 125 -5 0 -10 18 -10 40 0 22 5 40 10 40 6 0 10 18 10 40 l0
41 -139 -2 -139 -1 3 -31 c1 -18 0 -23 -2 -13 -3 11 -12 26 -20 35 -14 14 -15
13 -8 -7 l7 -23 -24 23 c-14 13 -22 28 -20 33 3 6 -1 5 -8 -2 -10 -9 -8 -18
14 -43 34 -40 33 -61 -4 -103 -28 -32 -28 -35 -12 -52 15 -17 15 -17 0 -6 -10
7 -18 8 -22 2 -4 -5 3 -16 14 -24 18 -13 19 -15 5 -21 -23 -9 -25 -8 -19 8 8
20 -13 29 -33 16 -17 -11 -17 -11 0 -6 9 3 17 1 17 -3 0 -16 -31 -21 -52 -10
-20 11 -20 12 16 30 39 19 67 47 91 92 22 38 7 61 -112 179 -111 110 -170 143
-205 112 -10 -10 -18 -13 -18 -7 0 5 9 18 19 27 15 14 24 15 40 6 12 -6 21 -8
21 -5 0 4 14 -3 31 -15 16 -12 33 -20 35 -17 3 3 -7 12 -23 21 -15 8 -21 15
-13 15 22 0 53 -26 45 -38 -3 -6 -1 -11 5 -11 6 0 9 -4 5 -9 -3 -5 4 -12 14
-16 11 -3 23 -15 26 -26 6 -19 20 -25 28 -11 2 4 2 1 0 -6 -1 -7 2 -10 8 -7 6
4 8 13 5 21 -7 19 18 18 34 -1 13 -16 7 -45 -10 -45 -6 0 -8 5 -5 10 3 6 2 10
-3 10 -20 0 -20 -14 1 -30 21 -18 23 -18 45 2 16 16 22 33 22 65 l0 43 40 0
40 0 0 -40 0 -40 120 0 120 0 0 40 c0 22 5 40 10 40 6 0 10 33 10 80 0 47 -4
80 -10 80 -5 0 -10 18 -10 40 l0 40 -160 0 c-133 0 -162 -3 -166 -15 -4 -8 -9
-13 -14 -10 -4 2 -7 -9 -6 -24 1 -16 4 -27 8 -25 3 2 4 -4 1 -14 -2 -11 4 -27
14 -37 13 -13 14 -20 5 -23 -7 -2 -9 -9 -5 -15 3 -7 2 -8 -3 -4 -5 5 -9 12
-10 15 -3 26 -18 62 -25 62 -16 0 -21 -28 -9 -47 9 -16 10 -15 4 6 -4 16 -3
21 5 17 6 -4 11 -16 11 -27 0 -16 -5 -19 -19 -14 -23 7 -45 -24 -35 -49 5 -12
2 -15 -11 -10 -16 7 -16 5 0 -20 17 -25 17 -28 2 -44 -9 -8 -20 -12 -24 -8 -4
4 0 13 9 20 15 11 15 13 -3 24 -14 9 -18 9 -17 1 2 -6 -2 -13 -8 -16 -20 -7
-11 31 13 55 12 12 23 26 23 29 0 4 -5 2 -12 -5 -7 -7 -20 -12 -31 -12 -10 0
-15 -4 -12 -10 3 -6 -1 -7 -10 -4 -19 8 -17 10 26 33 61 33 111 116 110 184 0
9 5 17 10 17 19 0 21 31 3 46 -16 13 -16 15 -2 10 12 -4 16 0 12 12 -5 15 -4
15 9 -1 12 -15 34 -17 176 -17 l161 0 0 40 c0 22 -4 40 -10 40 -5 0 -10 18
-10 40 l0 40 -80 0 c-103 0 -105 18 -2 23 l77 3 -83 2 c-62 1 -83 5 -80 15 3
8 34 14 89 17 46 3 90 9 97 13 9 7 12 -96 12 -502 l0 -511 -765 0 -765 0 0
422 c1 286 -3 425 -10 432 -7 7 -16 7 -28 0 -16 -10 -17 -47 -20 -449 -1 -315
1 -442 9 -451 10 -12 147 -14 809 -14 439 0 805 3 814 6 14 6 16 65 16 570 0
557 0 564 20 564 19 0 20 7 20 118 0 110 -1 118 -22 131 -12 7 -63 49 -114 92
l-92 79 -65 0 -66 0 -3 43 c-3 42 -3 42 -45 45 l-43 3 0 63 c0 35 -5 67 -12
74 -9 9 -113 12 -405 12 -378 0 -393 -1 -403 -19z m760 -86 c0 -45 0 -45 -35
-45 -38 0 -55 -20 -55 -64 0 -23 -4 -26 -34 -26 -41 0 -65 -23 -46 -45 10 -12
48 -15 225 -15 l212 0 111 -96 112 -95 0 -55 0 -54 -170 0 -170 0 0 63 c0 36
-5 68 -12 75 -16 16 -200 16 -216 0 -7 -7 -12 -39 -12 -75 l0 -63 -265 0 -265
0 0 63 c0 36 -5 68 -12 75 -8 8 -47 12 -110 12 -113 0 -118 -4 -118 -94 l0
-56 -165 0 -165 0 0 59 0 59 106 91 107 91 336 2 336 3 0 25 0 25 -157 3 -158
3 0 32 c0 42 -15 57 -57 57 -32 0 -33 1 -33 45 l0 45 355 0 355 0 0 -45z
m-680 -120 c0 -12 -13 -15 -60 -15 -47 0 -60 3 -60 15 0 12 13 15 60 15 47 0
60 -3 60 -15z m770 0 c0 -12 -13 -15 -60 -15 -47 0 -60 3 -60 15 0 12 13 15
60 15 47 0 60 -3 60 -15z m-770 -395 l0 -110 -60 0 -60 0 0 110 0 110 60 0 60
0 0 -110z m770 0 l0 -110 -60 0 -60 0 0 110 0 110 60 0 60 0 0 -110z m-190
-166 c-10 -11 -8 -18 11 -34 13 -11 32 -22 42 -25 9 -4 17 -11 17 -16 0 -6
-10 -3 -22 5 -32 22 -48 19 -19 -3 23 -18 42 -69 21 -56 -5 3 -10 1 -10 -4 0
-6 7 -11 15 -11 8 0 15 6 15 14 0 20 26 27 40 11 9 -11 7 -12 -12 -8 l-23 5
23 -16 c12 -10 22 -24 22 -32 0 -8 5 -14 10 -14 6 0 10 -7 10 -15 0 -26 -18
-16 -25 14 -12 57 -44 50 -113 -23 -24 -25 -47 -46 -52 -46 -27 0 -15 27 34
78 31 31 56 63 56 69 0 35 -89 59 -152 43 -98 -26 -153 -103 -146 -202 3 -47
1 -61 -14 -75 -15 -13 -20 -14 -33 -3 -9 7 -14 19 -11 27 3 8 2 12 -3 9 -5 -3
-19 3 -31 14 -23 20 -23 21 -4 35 27 20 33 19 40 -10 3 -14 10 -25 15 -25 5 0
6 8 3 18 -5 14 -3 14 11 -3 16 -19 16 -19 11 15 -6 40 10 107 32 133 8 9 12
18 9 18 -4 1 -11 2 -16 3 -17 2 -25 16 -10 16 8 0 20 -5 27 -12 9 -9 12 -8 12
6 0 10 5 14 11 10 6 -3 14 -3 18 2 3 5 23 24 45 42 31 27 43 32 68 27 21 -5
28 -4 24 4 -9 13 -102 15 -110 2 -4 -5 0 -12 6 -14 9 -4 8 -6 -3 -6 -8 -1 -21
5 -28 12 -10 10 -11 9 -6 -5 4 -10 12 -18 18 -18 6 0 7 -3 4 -7 -4 -3 -18 4
-32 17 -21 20 -35 23 -107 24 -79 1 -83 0 -86 -22 -2 -13 -14 -28 -28 -34 -13
-6 -24 -15 -24 -20 0 -12 13 -10 38 8 12 8 22 12 22 8 0 -3 7 -1 15 6 12 10
16 9 21 -5 9 -23 -12 -43 -28 -27 -17 17 -25 15 -31 -8 -4 -16 -2 -18 13 -10
13 7 21 7 25 -1 5 -6 11 -4 19 7 13 18 36 12 36 -9 0 -8 -3 -8 -9 1 -6 10 -10
10 -20 -2 -7 -8 -19 -12 -27 -9 -8 3 -14 1 -14 -5 0 -18 29 -21 39 -4 5 9 13
14 17 9 4 -4 -1 -15 -10 -26 -11 -12 -14 -21 -7 -26 6 -3 11 0 12 7 0 10 2 10
6 1 2 -7 9 -13 15 -13 7 0 7 4 -1 13 -8 10 -7 22 1 45 15 38 33 43 24 7 -4
-14 -2 -25 3 -25 5 0 11 -9 14 -19 3 -13 0 -18 -7 -15 -7 3 -20 -10 -29 -28
-13 -25 -16 -27 -11 -8 4 14 3 22 -1 18 -4 -4 -47 26 -95 67 -48 41 -96 75
-107 75 -21 0 -103 -81 -103 -101 0 -7 28 -44 63 -83 85 -96 85 -96 40 -94
-21 1 -32 3 -25 6 6 2 12 8 12 13 0 6 -5 7 -11 3 -8 -5 -9 -2 -1 11 8 15 2 25
-31 57 -27 25 -44 35 -51 28 -7 -7 -6 -14 3 -22 10 -11 11 -9 5 7 -7 18 -6 17
16 -3 19 -17 21 -25 12 -34 -9 -9 -12 -9 -12 2 0 12 -17 14 -95 12 l-95 -4 0
41 0 41 75 0 c69 0 76 2 84 22 4 12 7 32 5 45 -1 14 3 23 12 23 8 0 14 5 14
11 0 5 -4 7 -10 4 -5 -3 -10 -2 -10 4 0 5 -3 18 -6 28 -5 13 -2 11 11 -5 16
-22 18 -22 36 -6 10 9 19 22 19 27 0 6 -9 2 -20 -8 -11 -10 -23 -15 -27 -11
-4 4 -1 11 6 15 8 6 1 8 -20 8 -19 0 -63 1 -99 2 -36 2 -84 3 -107 2 l-43 -1
0 -40 c0 -40 0 -40 -39 -40 -23 0 -41 -5 -44 -12 -2 -7 -5 1 -5 17 -2 54 -6
75 -14 75 -18 0 -6 31 15 40 12 5 16 9 10 9 -7 1 -13 4 -13 9 0 4 42 7 94 7
54 0 88 -4 80 -8 -8 -5 -12 -12 -9 -18 5 -7 -132 -16 -167 -10 -5 0 -8 -3 -8
-8 0 -4 24 -6 53 -4 28 2 73 5 99 7 28 2 49 -2 52 -8 2 -6 5 -3 5 7 1 10 -6
17 -16 18 -14 0 -15 2 -3 6 8 3 18 10 21 15 3 5 9 -5 12 -22 l7 -31 125 2 c87
1 123 5 115 13 -15 15 -12 46 5 46 8 0 15 -5 15 -11 0 -5 -4 -7 -10 -4 -6 4
-7 -1 -3 -11 5 -15 7 -15 15 0 8 14 39 16 248 16 185 0 240 3 241 13 1 6 4 -1
6 -16 3 -16 -1 -35 -7 -43z m-980 46 c0 -5 -4 -10 -10 -10 -5 0 -10 5 -10 10
0 6 5 10 10 10 6 0 10 -4 10 -10z m1250 3 c-1 -25 -14 -53 -26 -53 -8 0 -14
-5 -14 -10 0 -7 -13 -8 -35 -4 -24 4 -35 3 -35 -6 0 -8 -6 -9 -17 -5 -25 11
-102 12 -96 2 3 -5 11 -6 17 -4 7 3 13 -1 13 -9 0 -19 -8 -18 -46 10 -19 14
-28 27 -22 31 6 3 11 3 11 -2 0 -8 168 -6 208 2 15 4 22 13 22 30 0 14 5 25
10 25 6 0 10 -3 10 -7z m36 -29 c0 -25 -3 -31 -12 -23 -7 5 -14 6 -16 2 -3 -4
-3 -2 -1 5 1 8 3 22 3 31 0 10 6 18 13 18 8 0 13 -13 13 -33z m-548 -76 c18
-18 14 -28 -12 -28 -13 0 -26 6 -29 14 -10 26 19 36 41 14z m38 -15 c-7 -7
-26 7 -26 19 0 6 6 6 15 -2 9 -7 13 -15 11 -17z m361 -20 c7 -19 -22 -26 -47
-13 -16 9 -25 8 -37 -2 -15 -12 -15 -11 -3 8 10 16 23 21 48 20 20 0 37 -7 39
-13z m-255 -76 c-29 -29 -52 -57 -52 -62 0 -12 91 -105 103 -105 4 0 33 24 64
53 l56 52 -8 -35 c-17 -82 -70 -126 -141 -118 -21 3 -46 8 -55 12 -12 5 -29
-3 -53 -25 -27 -23 -40 -29 -48 -21 -8 8 -2 21 21 48 23 25 30 41 24 53 -4 9
-8 39 -8 68 0 57 25 94 80 119 66 29 72 17 17 -39z m-362 -7 l55 -49 -26 -26
-25 -26 -52 59 c-47 55 -50 60 -34 75 9 10 19 17 22 17 3 0 30 -23 60 -50z
m-420 -80 l0 -80 -40 0 -40 0 0 80 0 80 40 0 40 0 0 -80z m590 34 c-18 -21
-24 -10 -9 18 8 14 14 18 17 10 2 -7 -2 -19 -8 -28z m-330 -69 c0 -8 -4 -15
-10 -15 -5 0 -10 7 -10 15 0 8 5 15 10 15 6 0 10 -7 10 -15z m241 -66 c26 -25
29 -33 18 -41 -10 -6 -6 -7 11 -3 21 6 15 -3 -30 -49 -53 -54 -57 -57 -93 -50
-58 9 -124 -13 -169 -58 -21 -21 -38 -37 -39 -35 -12 41 -1 77 24 77 5 0 3 -8
-6 -18 -25 -27 -21 -36 7 -15 13 10 22 21 20 24 -4 7 21 21 46 25 8 2 34 8 57
13 28 7 51 8 68 1 20 -8 26 -7 23 2 -3 7 -17 14 -32 15 -16 1 -31 5 -35 9 -3
4 4 4 17 1 12 -3 22 -2 22 1 -1 16 -17 30 -40 35 -25 4 -25 4 3 6 17 0 27 7
27 16 0 8 4 15 9 15 4 0 6 -11 3 -25 -4 -21 -1 -24 14 -18 16 6 17 4 6 -9 -10
-12 -9 -18 3 -28 12 -10 19 -10 27 -2 9 9 8 12 -2 12 -13 0 -13 2 0 10 13 9
13 11 0 20 -8 5 -10 10 -5 10 6 0 3 5 -5 11 -12 9 -12 10 3 5 10 -3 23 -6 29
-6 6 0 8 -6 5 -13 -3 -8 1 -14 9 -14 17 0 19 27 2 28 -10 0 -10 2 0 6 18 7 15
21 -8 28 -11 4 -18 11 -15 16 9 13 -2 11 -36 -7 -17 -8 -33 -13 -37 -10 -3 3
1 6 9 6 11 0 11 2 -1 10 -12 8 -9 10 12 10 15 0 30 5 33 10 9 14 11 13 46 -21z
m-27 -15 c17 -6 22 -24 8 -24 -5 0 -17 7 -28 15 -19 15 -8 20 20 9z m-121 -71
c-7 -2 -19 -2 -25 0 -7 3 -2 5 12 5 14 0 19 -2 13 -5z m202 -93 c-36 -38 -65
-72 -65 -78 0 -5 5 -24 11 -41 24 -69 -31 -156 -107 -168 l-39 -6 48 50 c26
27 47 55 47 63 0 19 -80 100 -99 100 -9 0 -37 -21 -64 -47 l-50 -48 6 39 c12
80 92 128 174 106 l45 -13 66 66 c51 51 69 64 79 55 11 -9 0 -25 -52 -78z
m-555 -40 l0 -80 -40 0 -40 0 0 80 0 80 40 0 40 0 0 -80z m205 62 c-23 -14
-29 -26 -31 -56 0 -20 2 -32 6 -25 14 22 18 -7 7 -57 -8 -39 -7 -63 3 -98 17
-63 39 -61 111 10 48 48 57 53 68 40 11 -13 8 -21 -18 -47 -25 -24 -34 -29
-45 -20 -11 9 -16 9 -22 0 -4 -7 -3 -9 4 -5 21 13 24 -16 3 -36 -68 -63 66
-105 174 -54 28 13 56 34 64 49 8 15 17 25 20 22 8 -4 12 21 14 107 2 55 6 71
26 92 14 14 29 26 35 25 6 0 5 -3 -3 -6 -11 -5 -11 -7 0 -14 11 -7 11 -9 -2
-9 -9 0 -24 -9 -33 -19 -16 -17 -16 -24 -5 -55 15 -42 22 -39 25 12 1 20 0 31
-3 25 -2 -7 -10 -13 -16 -13 -20 0 19 31 41 33 26 2 26 4 9 37 -12 23 -11 27
10 43 26 20 29 16 11 -12 -25 -41 4 -89 125 -209 63 -62 105 -110 93 -106 -20
6 -20 6 -3 -13 19 -22 22 -21 -63 -29 l-55 -6 35 31 c24 21 41 29 55 24 17 -5
18 -4 6 10 -9 12 -18 14 -31 7 -14 -7 -17 -6 -16 8 0 9 -5 16 -13 14 -21 -4
-52 8 -45 19 4 6 11 5 20 -2 12 -10 17 -9 27 1 10 10 9 12 -5 7 -10 -3 -20 -2
-24 4 -4 7 -10 6 -19 -1 -10 -8 -14 -7 -18 2 -2 7 -8 10 -12 6 -4 -4 3 -16 16
-27 18 -15 20 -20 8 -21 -9 0 -22 11 -29 25 -7 14 -20 26 -29 26 -9 1 -2 4 14
8 17 4 32 3 33 -1 2 -4 8 -8 13 -8 6 0 7 6 3 13 -6 10 -4 10 7 0 21 -21 34
-15 14 7 -10 11 -21 17 -26 15 -4 -3 -10 -1 -14 4 -3 6 -13 7 -23 4 -13 -4
-13 -2 3 10 11 8 16 19 12 23 -4 5 -13 2 -18 -6 -9 -13 -10 -13 -7 0 1 8 -8
31 -20 50 -24 39 -28 36 -11 -7 18 -44 18 -65 -3 -71 -13 -3 -18 -14 -18 -43
0 -37 0 -38 -42 -41 -35 -2 -43 -7 -43 -23 0 -11 -8 -21 -18 -23 -10 -2 -16
-10 -13 -17 3 -8 -3 -12 -19 -11 -22 1 -22 2 -8 19 15 16 14 16 -15 6 -18 -6
-32 -15 -32 -19 0 -5 -8 -9 -17 -9 -10 0 -46 -2 -80 -4 -36 -3 -63 -1 -63 5 0
5 -5 6 -12 2 -8 -5 -9 -2 -5 9 3 10 2 17 -3 17 -6 0 -10 -6 -11 -12 0 -7 -2
-8 -5 -3 -2 6 -64 9 -164 7 -111 -2 -160 0 -160 8 0 7 49 10 157 9 135 -1 157
1 159 15 1 8 -4 20 -12 27 -8 6 -14 8 -14 4 0 -5 -10 0 -22 11 -21 19 -21 19
-14 -1 6 -16 5 -17 -5 -8 -10 10 -9 16 2 29 8 10 9 15 3 11 -7 -4 -14 0 -18 8
-3 8 -2 15 3 15 4 0 5 22 1 50 -3 27 -2 56 2 65 6 9 5 15 -2 15 -5 0 -10 -7
-10 -15 0 -9 -7 -18 -15 -21 -9 -4 -13 -14 -10 -28 3 -11 7 -34 10 -50 2 -16
8 -33 13 -38 15 -15 2 -49 -17 -46 -11 2 -16 14 -16 38 0 19 -6 45 -13 58 -8
14 -9 22 -2 22 5 0 10 9 10 20 0 11 -7 20 -16 20 -8 0 -13 4 -9 9 3 5 1 13 -5
16 -6 4 -10 24 -8 46 2 36 3 37 19 21 9 -9 14 -21 12 -25 -3 -5 4 -3 14 4 20
12 46 66 38 78 -2 4 13 8 33 9 l37 2 -30 -18z m684 -116 l106 -105 -21 -28
c-36 -48 -52 -42 -154 61 -52 52 -97 103 -101 113 -8 21 26 63 49 63 8 0 63
-47 121 -104z m131 39 c-7 -8 -17 -15 -22 -15 -6 0 -5 7 2 15 7 8 17 15 22 15
6 0 5 -7 -2 -15z m67 -157 c-3 -7 -5 -2 -5 12 0 14 2 19 5 13 2 -7 2 -19 0
-25z m-1087 -28 c0 -40 0 -40 -39 -40 -22 0 -41 -3 -44 -7 -2 -5 -2 -2 0 5 1
8 3 29 3 48 0 33 1 34 40 34 l40 0 0 -40z m1110 8 c0 -13 -5 -30 -10 -38 -9
-13 -11 -13 -20 0 -6 10 -10 11 -10 3 0 -7 -5 -13 -10 -13 -6 0 -5 8 2 20 7
11 14 16 16 10 7 -20 22 -9 22 15 0 14 2 25 5 25 3 0 5 -10 5 -22z m-395 -98
c4 -6 -22 -10 -69 -10 -44 0 -76 4 -76 10 0 6 30 10 69 10 39 0 73 -4 76 -10z
m635 0 c0 -6 -57 -10 -150 -10 -93 0 -150 4 -150 10 0 6 57 10 150 10 93 0
150 -4 150 -10z"/>
<path d="M99 1353 c-13 -17 -13 -17 6 -3 11 8 22 16 24 17 2 2 0 3 -6 3 -6 0
-17 -8 -24 -17z"/>
<path d="M498 1573 c7 -3 16 -2 19 1 4 3 -2 6 -13 5 -11 0 -14 -3 -6 -6z"/>
<path d="M962 1038 c-4 -4 -79 -9 -167 -11 -104 -1 -76 -3 80 -3 132 0 223 1
203 3 -21 2 -38 7 -38 11 0 10 -68 10 -78 0z"/>
<path d="M592 1005 c4 -5 2 -15 -5 -24 -10 -14 -10 -14 5 -3 14 11 18 10 30
-6 22 -30 37 -35 63 -18 35 23 31 39 -5 18 -22 -13 -32 -14 -40 -6 -9 9 -9 14
1 19 8 5 10 4 5 -3 -11 -19 10 -14 25 6 7 9 10 14 5 10 -5 -4 -17 -3 -27 3
-13 7 -19 6 -19 -1 0 -7 -7 -7 -22 1 -13 6 -20 8 -16 4z"/>
<path d="M560 992 c0 -5 -16 -26 -35 -47 -19 -22 -32 -41 -29 -44 2 -2 19 12
38 32 19 20 31 37 29 37 -3 0 0 7 7 15 9 10 9 15 1 15 -6 0 -11 -4 -11 -8z"/>
<path d="M1006 980 c-15 -5 -16 -9 -7 -15 7 -4 16 -3 20 3 4 7 22 7 51 2 59
-12 66 -12 55 -1 -13 12 -95 20 -119 11z"/>
<path d="M1105 825 c-25 -26 -44 -50 -41 -53 8 -7 37 19 31 28 -3 5 3 11 14
15 23 7 56 43 48 52 -4 3 -27 -16 -52 -42z"/>
<path d="M777 754 c-8 -8 3 -34 14 -34 11 0 12 27 0 34 -4 3 -11 3 -14 0z"/>
<path d="M580 723 c0 -6 8 -17 18 -24 16 -13 16 -13 2 6 -8 11 -16 22 -17 24
-2 2 -3 0 -3 -6z"/>
<path d="M820 689 c0 -12 5 -19 12 -17 18 6 20 25 3 31 -10 5 -15 0 -15 -14z"/>
<path d="M1248 913 c7 -3 16 -2 19 1 4 3 -2 6 -13 5 -11 0 -14 -3 -6 -6z"/>
<path d="M720 570 c-9 -6 -10 -10 -3 -10 6 0 15 5 18 10 8 12 4 12 -15 0z"/>
<path d="M865 361 c3 -5 1 -21 -5 -35 -5 -14 -6 -26 -1 -26 5 0 11 8 15 18 3
9 8 22 11 28 3 6 -1 14 -10 18 -9 3 -14 2 -10 -3z"/>
<path d="M886 331 c-8 -12 4 -41 16 -41 6 0 6 6 -1 14 -9 11 -9 15 1 18 9 3 9
6 1 11 -7 4 -14 3 -17 -2z"/>
<path d="M578 303 c-8 -10 -18 -25 -22 -33 -4 -8 0 -6 8 4 9 11 16 16 16 10 0
-5 5 -1 11 9 15 25 6 31 -13 10z"/>
<path d="M501 218 c-17 -27 -9 -33 13 -9 10 10 13 21 9 24 -5 3 -15 -3 -22
-15z"/>
<path d="M1050 211 c0 -6 4 -13 10 -16 6 -3 7 1 4 9 -7 18 -14 21 -14 7z"/>
<path d="M775 200 c-3 -5 -2 -10 4 -10 5 0 13 5 16 10 3 6 2 10 -4 10 -5 0
-13 -4 -16 -10z"/>
<path d="M760 170 c0 -5 5 -10 10 -10 6 0 10 5 10 10 0 6 -4 10 -10 10 -5 0
-10 -4 -10 -10z"/>
<path d="M1051 141 c-9 -16 -6 -18 17 -16 45 3 47 4 26 20 -25 19 -31 19 -43
-4z"/>
<path d="M1600 1023 c0 -5 5 -15 10 -23 8 -12 10 -11 10 8 0 12 -4 22 -10 22
-5 0 -10 -3 -10 -7z"/>
<path d="M123 843 c-10 -4 -13 -85 -13 -359 0 -211 4 -353 9 -350 5 4 10 157
10 353 1 190 4 350 7 355 6 9 5 9 -13 1z"/>
<path d="M1189 613 c-13 -15 -12 -15 9 -4 23 12 28 21 13 21 -5 0 -15 -7 -22
-17z"/>
<path d="M1257 396 c-10 -8 -14 -16 -10 -19 5 -3 14 3 21 14 14 22 13 23 -11
5z"/>
</g>
</svg>
