<?xml version="1.0" encoding="UTF-8" standalone="no"?>
<svg
   viewBox="0 0 456 456"
   version="1.1"
   id="svg1"
   sodipodi:docname="toolbox.svg"
   inkscape:version="1.3 (0e150ed6c4, 2023-07-21)"
   inkscape:export-filename="Exports\toolbox.svg"
   inkscape:export-xdpi="96"
   inkscape:export-ydpi="96"
   width="456"
   height="456"
   xmlns:inkscape="http://www.inkscape.org/namespaces/inkscape"
   xmlns:sodipodi="http://sodipodi.sourceforge.net/DTD/sodipodi-0.dtd"
   xmlns="http://www.w3.org/2000/svg"
   xmlns:svg="http://www.w3.org/2000/svg">
  <defs
     id="defs1" />
  <sodipodi:namedview
     id="namedview1"
     pagecolor="#ffffff"
     bordercolor="#000000"
     borderopacity="0.25"
     inkscape:showpageshadow="2"
     inkscape:pageopacity="0.0"
     inkscape:pagecheckerboard="0"
     inkscape:deskcolor="#d1d1d1"
     inkscape:zoom="1.5878906"
     inkscape:cx="256"
     inkscape:cy="255.68512"
     inkscape:window-width="1350"
     inkscape:window-height="1032"
     inkscape:window-x="106"
     inkscape:window-y="12"
     inkscape:window-maximized="0"
     inkscape:current-layer="svg1" />
  <!--! Font Awesome Free 6.4.0 by @fontawesome - https://fontawesome.com License - https://fontawesome.com/license/free (Icons: CC BY 4.0, Fonts: SIL OFL 1.1, Code: MIT License) Copyright 2023 Fonticons, Inc. -->
  <path
     d="m 176,88 v 40 H 336 V 88 c 0,-4.4 -3.6,-8 -8,-8 H 184 c -4.4,0 -8,3.6 -8,8 z m -48,40 V 88 c 0,-30.9 25.1,-56 56,-56 h 144 c 30.9,0 56,25.1 56,56 v 40 h 28.1 c 12.7,0 24.9,5.1 33.9,14.1 l 51.9,51.9 c 9,9 14.1,21.2 14.1,33.9 V 304 H 384 v -16 c 0,-17.7 -14.3,-32 -32,-32 -17.7,0 -32,14.3 -32,32 v 16 H 192 v -16 c 0,-17.7 -14.3,-32 -32,-32 -17.7,0 -32,14.3 -32,32 v 16 H 0 V 227.9 C 0,215.2 5.1,203 14.1,194 L 66,142.1 C 75,133.1 87.2,128 99.9,128 Z M 0,416 v -80 h 128 v 16 c 0,17.7 14.3,32 32,32 17.7,0 32,-14.3 32,-32 v -16 h 128 v 16 c 0,17.7 14.3,32 32,32 17.7,0 32,-14.3 32,-32 v -16 h 128 v 80 c 0,35.3 -28.7,64 -64,64 H 64 C 28.7,480 0,451.3 0,416 Z"
     id="path1" />
  <path
     style="fill:#000080;fill-opacity:1;stroke-width:0.629766"
     d="M 56.364085,479.20423 C 46.234553,478.00024 34.044367,473.03195 25.693495,466.70397 14.719928,458.38861 5.9678299,445.38825 2.5553528,432.33457 0.39769421,424.08092 0.01104163,415.36731 0.00538639,374.86839 L 0,336.29521 h 63.92128 63.92128 l 0.007,10.2337 c 0.011,15.02278 1.95495,20.83732 9.44258,28.24319 6.45742,6.38691 13.65702,9.36363 22.68165,9.37787 9.18431,0.0145 17.40988,-3.51972 23.51055,-10.1016 6.91811,-7.4638 8.5939,-12.82513 8.5939,-27.49433 V 336.29521 H 256 319.92128 v 10.25883 c 0,14.6692 1.67579,20.03053 8.59391,27.49433 9.7312,10.49878 25.08691,13.11585 38.55609,6.57112 4.61247,-2.24122 11.307,-8.93574 13.54821,-13.54821 2.94095,-6.05254 3.52237,-9.43555 3.53048,-20.54237 l 0.007,-10.2337 h 63.92128 63.92128 l -0.005,38.57318 c -0.006,40.49892 -0.3923,49.21253 -2.54996,57.46618 -5.71518,21.86217 -23.33521,39.1959 -46.25154,45.50003 l -6.29766,1.73244 -198.06151,0.0806 c -108.93382,0.0443 -200.045265,-0.1552 -202.469865,-0.44339 z"
     id="path2" />
  <path
     style="fill:#000080;fill-opacity:1;stroke-width:0.629766"
     d="m 0.01624778,266.86347 c 0.0089363,-20.17614 0.28492958,-39.44582 0.61331839,-42.82151 0.32838874,-3.37569 1.32932983,-8.3351 2.22431353,-11.02091 3.3741004,-10.12552 4.2828317,-11.21081 36.4329993,-43.51115 16.319893,-16.39612 31.338358,-30.95532 33.374367,-32.35378 5.020762,-3.44855 11.740293,-6.44339 17.204775,-7.668 3.558413,-0.79745 8.18506,-1.01579 21.525059,-1.01579 h 16.99238 l 0.2549,-25.3481 c 0.28398,-28.239646 0.28543,-28.250857 4.91153,-38.159754 7.52979,-16.128432 21.33358,-27.276025 38.87131,-31.391507 4.55191,-1.068172 9.81825,-1.140004 83.5788,-1.140004 73.76056,0 79.0269,0.07183 83.57881,1.140004 10.50124,2.464267 18.72605,6.831321 26.15307,13.886268 5.78615,5.496276 9.49482,10.60085 12.71823,17.505239 4.62611,9.908897 4.62756,9.920108 4.91154,38.159754 l 0.2549,25.3481 h 16.99238 c 20.01874,0 22.82395,0.44238 32.67029,5.1521 l 6.61255,3.16293 31.2552,31.26684 c 33.90413,33.91675 34.58575,34.72335 37.99916,44.96685 0.89498,2.68581 1.89592,7.64522 2.22431,11.02091 0.32839,3.37569 0.60438,22.64537 0.61332,42.82151 l 0.0162,36.68389 H 448.07868 384.1574 v -9.94395 c 0,-14.50916 -2.28294,-21.44803 -9.35872,-28.44544 -12.74148,-12.60034 -33.30682,-12.49417 -45.74583,0.23618 -7.39902,7.5723 -9.13162,12.86489 -9.13162,27.89438 v 10.25883 H 256 192.07872 l -0.0154,-10.2337 c -0.008,-5.62854 -0.30744,-11.5011 -0.66438,-13.05014 -1.18099,-5.12521 -4.30993,-10.66354 -8.35209,-14.78349 -17.61603,-17.95502 -47.90589,-9.84104 -54.25469,14.53363 -0.65228,2.50427 -0.94961,6.75933 -0.94961,13.58975 v 9.94395 H 63.92128 0 Z M 336.16102,106.38147 335.98033,84.2906 l -2.35238,-2.155139 -2.35238,-2.15514 H 256 180.72443 l -2.35237,2.15514 -2.35238,2.155139 -0.18069,22.09087 -0.18069,22.09086 H 256 336.3417 Z"
     id="path3" />
</svg>
